<svg width="293" height="174" viewBox="0 0 293 174" fill="none" xmlns="http://www.w3.org/2000/svg">
<path d="M66.5059 5.06298L177 4.97055L293 4.97054L283.5 37.167L96.7544 37.167L85.5 68.5L143 69.5L157.5 75.9257L112 107.971L74.5 107.971L53 170L11.5 170L42.1493 75.4939L66.5059 5.06298Z" fill="#100505"/>
<path d="M203.219 76.8199L192.249 108.697H161.833L151.5 139.186H207.704L230.145 63.5785H137.4L125.433 60.1456L131.416 42H272.03L283 44.4521L246.5 170H101L88 164L108 108H112L157.5 76L150.364 72L156.5 68.5L188.26 68.9732L203.219 74.8582V76.8199Z" fill="#D52727"/>
<path d="M53 0L67 5L11.5 170L0.5 163.5L53 0Z" fill="#100505"/>
<path d="M53 0H274L292.5 5L66 6.5L53 0Z" fill="#100505"/>
</svg>
