<svg width="50" height="50" viewBox="0 0 293 174" fill="none" xmlns="http://www.w3.org/2000/svg">
<path d="M15.5 170L38.5 95.6673L50.5 56.1673L64 14.6673L113.5 14.6673L167 14.6673L211.5 14.6673L256.5 14.6673L247 42.9258L92.6611 42.9258L82.5 75.9258L135.5 75.9258L164.5 76.4258L179 82.3515L150 82.3515L104 114.396L70.5 114.396L53.5 170L15.5 170Z" fill="black"/>
<path d="M162 36L153.333 64.0785H240.5L216 143.036H165.864H165.117L178.5 99.5H194.5L205 92L217 84L222.5 80L229.5 75H187L140 108L130 139.686L120.5 170L186.807 170.5L243.5 170L284.5 36H162Z" fill="#C83D34"/>
<path d="M146 115.5H117L161.806 84H190.5L146 115.5Z" fill="#BFBFBF" fill-opacity="0.8"/>
<path d="M256 33.5L262 16H282.5L276.5 33.5H256Z" fill="#B5B5B5" fill-opacity="0.7"/>
<path d="M187 75L174 69H215L230 75H187Z" fill="#D9D9D9" fill-opacity="0.8"/>
</svg>
